<svg id="visual" viewBox="0 0 960 540" width="960" height="540" xmlns="http://www.w3.org/2000/svg" xmlns:xlink="http://www.w3.org/1999/xlink" version="1.1"><rect x="0" y="0" width="960" height="540" fill="#fafaf9"></rect><defs><linearGradient id="grad1_0" x1="43.8%" y1="0%" x2="100%" y2="100%"><stop offset="14.444444444444446%" stop-color="#facfe7" stop-opacity="1"></stop><stop offset="85.55555555555554%" stop-color="#facfe7" stop-opacity="1"></stop></linearGradient></defs><defs><linearGradient id="grad1_1" x1="43.8%" y1="0%" x2="100%" y2="100%"><stop offset="14.444444444444446%" stop-color="#facfe7" stop-opacity="1"></stop><stop offset="85.55555555555554%" stop-color="#fee5dd" stop-opacity="1"></stop></linearGradient></defs><defs><linearGradient id="grad1_2" x1="43.8%" y1="0%" x2="100%" y2="100%"><stop offset="14.444444444444446%" stop-color="#fafaf9" stop-opacity="1"></stop><stop offset="85.55555555555554%" stop-color="#fee5dd" stop-opacity="1"></stop></linearGradient></defs><defs><linearGradient id="grad2_0" x1="0%" y1="0%" x2="56.3%" y2="100%"><stop offset="14.444444444444446%" stop-color="#facfe7" stop-opacity="1"></stop><stop offset="85.55555555555554%" stop-color="#facfe7" stop-opacity="1"></stop></linearGradient></defs><defs><linearGradient id="grad2_1" x1="0%" y1="0%" x2="56.3%" y2="100%"><stop offset="14.444444444444446%" stop-color="#fee5dd" stop-opacity="1"></stop><stop offset="85.55555555555554%" stop-color="#facfe7" stop-opacity="1"></stop></linearGradient></defs><defs><linearGradient id="grad2_2" x1="0%" y1="0%" x2="56.3%" y2="100%"><stop offset="14.444444444444446%" stop-color="#fee5dd" stop-opacity="1"></stop><stop offset="85.55555555555554%" stop-color="#fafaf9" stop-opacity="1"></stop></linearGradient></defs><g transform="translate(960, 0)"><path d="M0 405C-31.9 369.7 -63.7 334.3 -106.3 327.2C-148.9 320 -202.2 341.1 -238.1 327.7C-273.9 314.2 -292.2 266.3 -312.3 226.9C-332.4 187.5 -354.2 156.6 -370 120.2C-385.7 83.8 -395.4 41.9 -405 0L0 0Z" fill="#f9f1e8"></path><path d="M0 270C-21.2 246.4 -42.5 222.9 -70.9 218.1C-99.3 213.3 -134.8 227.4 -158.7 218.4C-182.6 209.5 -194.8 177.5 -208.2 151.3C-221.6 125 -236.1 104.4 -246.6 80.1C-257.1 55.9 -263.6 27.9 -270 0L0 0Z" fill="#ffd9dc"></path><path d="M0 135C-10.6 123.2 -21.2 111.4 -35.4 109.1C-49.6 106.7 -67.4 113.7 -79.4 109.2C-91.3 104.7 -97.4 88.8 -104.1 75.6C-110.8 62.5 -118.1 52.2 -123.3 40.1C-128.6 27.9 -131.8 14 -135 0L0 0Z" fill="#facfe7"></path></g><g transform="translate(0, 540)"><path d="M0 -405C45.9 -406 91.8 -407 125.2 -385.2C158.5 -363.3 179.2 -318.6 211 -290.4C242.8 -262.3 285.6 -250.8 306.6 -222.8C327.6 -194.7 326.8 -150.2 339.5 -110.3C352.3 -70.4 378.6 -35.2 405 0L0 0Z" fill="#f9f1e8"></path><path d="M0 -270C30.6 -270.7 61.2 -271.4 83.4 -256.8C105.7 -242.2 119.5 -212.4 140.7 -193.6C161.9 -174.9 190.4 -167.2 204.4 -148.5C218.4 -129.8 217.8 -100.1 226.4 -73.5C234.9 -47 252.4 -23.5 270 0L0 0Z" fill="#ffd9dc"></path><path d="M0 -135C15.3 -135.3 30.6 -135.7 41.7 -128.4C52.8 -121.1 59.7 -106.2 70.3 -96.8C80.9 -87.4 95.2 -83.6 102.2 -74.3C109.2 -64.9 108.9 -50.1 113.2 -36.8C117.4 -23.5 126.2 -11.7 135 0L0 0Z" fill="#facfe7"></path></g></svg>