<svg id="visual" viewBox="0 0 960 540" width="960" height="540" xmlns="http://www.w3.org/2000/svg" xmlns:xlink="http://www.w3.org/1999/xlink" version="1.1"><path d="M0 141L20 149.5C40 158 80 175 120 180.5C160 186 200 180 240 173.7C280 167.3 320 160.7 360 157C400 153.3 440 152.7 480 148C520 143.3 560 134.7 600 133.2C640 131.7 680 137.3 720 143.3C760 149.3 800 155.7 840 156C880 156.3 920 150.7 940 147.8L960 145L960 0L940 0C920 0 880 0 840 0C800 0 760 0 720 0C680 0 640 0 600 0C560 0 520 0 480 0C440 0 400 0 360 0C320 0 280 0 240 0C200 0 160 0 120 0C80 0 40 0 20 0L0 0Z" fill="#fdf2f8"></path><path d="M0 149L20 153C40 157 80 165 120 163.2C160 161.3 200 149.7 240 146.2C280 142.7 320 147.3 360 152.8C400 158.3 440 164.7 480 162C520 159.3 560 147.7 600 139.2C640 130.7 680 125.3 720 130.5C760 135.7 800 151.3 840 150.5C880 149.7 920 132.3 940 123.7L960 115L960 0L940 0C920 0 880 0 840 0C800 0 760 0 720 0C680 0 640 0 600 0C560 0 520 0 480 0C440 0 400 0 360 0C320 0 280 0 240 0C200 0 160 0 120 0C80 0 40 0 20 0L0 0Z" fill="#fdeef6"></path><path d="M0 116L20 119C40 122 80 128 120 133C160 138 200 142 240 140C280 138 320 130 360 121.7C400 113.3 440 104.7 480 109.2C520 113.7 560 131.3 600 134.3C640 137.3 680 125.7 720 122.7C760 119.7 800 125.3 840 128.7C880 132 920 133 940 133.5L960 134L960 0L940 0C920 0 880 0 840 0C800 0 760 0 720 0C680 0 640 0 600 0C560 0 520 0 480 0C440 0 400 0 360 0C320 0 280 0 240 0C200 0 160 0 120 0C80 0 40 0 20 0L0 0Z" fill="#fdeaf4"></path><path d="M0 133L20 126.7C40 120.3 80 107.7 120 104.5C160 101.3 200 107.7 240 108.3C280 109 320 104 360 105.8C400 107.7 440 116.3 480 115.3C520 114.3 560 103.7 600 97.7C640 91.7 680 90.3 720 92.8C760 95.3 800 101.7 840 103.3C880 105 920 102 940 100.5L960 99L960 0L940 0C920 0 880 0 840 0C800 0 760 0 720 0C680 0 640 0 600 0C560 0 520 0 480 0C440 0 400 0 360 0C320 0 280 0 240 0C200 0 160 0 120 0C80 0 40 0 20 0L0 0Z" fill="#fce5f2"></path><path d="M0 72L20 73.8C40 75.7 80 79.3 120 83.5C160 87.7 200 92.3 240 95.2C280 98 320 99 360 101.3C400 103.7 440 107.3 480 101.8C520 96.3 560 81.7 600 78.3C640 75 680 83 720 89.8C760 96.7 800 102.3 840 99C880 95.7 920 83.3 940 77.2L960 71L960 0L940 0C920 0 880 0 840 0C800 0 760 0 720 0C680 0 640 0 600 0C560 0 520 0 480 0C440 0 400 0 360 0C320 0 280 0 240 0C200 0 160 0 120 0C80 0 40 0 20 0L0 0Z" fill="#fce1f0"></path><path d="M0 73L20 76.2C40 79.3 80 85.7 120 87.8C160 90 200 88 240 86.5C280 85 320 84 360 79C400 74 440 65 480 64.8C520 64.7 560 73.3 600 76.5C640 79.7 680 77.3 720 78.7C760 80 800 85 840 82.5C880 80 920 70 940 65L960 60L960 0L940 0C920 0 880 0 840 0C800 0 760 0 720 0C680 0 640 0 600 0C560 0 520 0 480 0C440 0 400 0 360 0C320 0 280 0 240 0C200 0 160 0 120 0C80 0 40 0 20 0L0 0Z" fill="#fcddee"></path><path d="M0 70L20 69C40 68 80 66 120 66.2C160 66.3 200 68.7 240 67.3C280 66 320 61 360 60.5C400 60 440 64 480 61.7C520 59.3 560 50.7 600 46.8C640 43 680 44 720 43.5C760 43 800 41 840 44.3C880 47.7 920 56.3 940 60.7L960 65L960 0L940 0C920 0 880 0 840 0C800 0 760 0 720 0C680 0 640 0 600 0C560 0 520 0 480 0C440 0 400 0 360 0C320 0 280 0 240 0C200 0 160 0 120 0C80 0 40 0 20 0L0 0Z" fill="#fbd8ec"></path><path d="M0 53L20 50C40 47 80 41 120 40.7C160 40.3 200 45.7 240 48C280 50.3 320 49.7 360 47.5C400 45.3 440 41.7 480 39.7C520 37.7 560 37.3 600 37.8C640 38.3 680 39.7 720 41.2C760 42.7 800 44.3 840 46C880 47.7 920 49.3 940 50.2L960 51L960 0L940 0C920 0 880 0 840 0C800 0 760 0 720 0C680 0 640 0 600 0C560 0 520 0 480 0C440 0 400 0 360 0C320 0 280 0 240 0C200 0 160 0 120 0C80 0 40 0 20 0L0 0Z" fill="#fbd4e9"></path><path d="M0 16L20 18.8C40 21.7 80 27.3 120 26.5C160 25.7 200 18.3 240 14.8C280 11.3 320 11.7 360 13.7C400 15.7 440 19.3 480 19.3C520 19.3 560 15.7 600 15C640 14.3 680 16.7 720 19.5C760 22.3 800 25.7 840 23.8C880 22 920 15 940 11.5L960 8L960 0L940 0C920 0 880 0 840 0C800 0 760 0 720 0C680 0 640 0 600 0C560 0 520 0 480 0C440 0 400 0 360 0C320 0 280 0 240 0C200 0 160 0 120 0C80 0 40 0 20 0L0 0Z" fill="#facfe7"></path></svg>