<svg id="visual" viewBox="0 0 900 600" width="900" height="600" xmlns="http://www.w3.org/2000/svg" xmlns:xlink="http://www.w3.org/1999/xlink" version="1.1"><path d="M0 392L25 409.8C50 427.7 100 463.3 150 483.8C200 504.3 250 509.7 300 500.3C350 491 400 467 450 465C500 463 550 483 600 473.2C650 463.3 700 423.7 750 417.8C800 412 850 440 875 454L900 468L900 601L875 601C850 601 800 601 750 601C700 601 650 601 600 601C550 601 500 601 450 601C400 601 350 601 300 601C250 601 200 601 150 601C100 601 50 601 25 601L0 601Z" fill="#facfe7" stroke-linecap="round" stroke-linejoin="miter"></path></svg>