<svg width="192" height="355" viewBox="0 0 192 355" fill="none" xmlns="http://www.w3.org/2000/svg">
<rect x="144" width="25" height="264" rx="5" fill="#3F3F46"/>
<rect y="43" width="192" height="18" rx="9" fill="#FEE2E2"/>
<mask id="mask0_0_1" style="mask-type:alpha" maskUnits="userSpaceOnUse" x="8" y="61" width="176" height="294">
<path d="M184 281.289C184 321.999 144.601 355 96 355C47.3989 355 8 321.999 8 281.289C8 240.58 47.3989 207.579 96 207.579C144.601 207.579 184 240.58 184 281.289Z" fill="#FECACA"/>
<path d="M8 61H184V281.711H8V61Z" fill="#FECACA"/>
</mask>
<g mask="url(#mask0_0_1)">
<path d="M8 61H184V281.711H8V61Z" fill="#FECACA"/>
<path d="M184 253.5V178.765C184 176.144 183.263 173.576 181.872 171.355L179.623 167.763C174.224 159.137 161.21 160.74 158.064 170.418C155.557 178.131 146.275 181.18 139.683 176.456L123 164.5C110.797 156.074 94.3382 157.455 83.7094 167.796L80.9575 170.474C71.5575 179.62 57.169 181.269 45.9436 174.487L36.562 168.819C26.2986 162.618 12.9234 167.07 8.42386 178.185C7.48345 180.508 7 182.991 7 185.497V253.5C7 302.377 46.6228 342 95.5 342C144.377 342 184 302.377 184 253.5Z" fill="#FCA5A5"/>
<path d="M220 243.806V207.431C220 202.918 218.372 198.557 215.415 195.148L212.577 191.877C204.935 183.066 190.732 185.15 185.942 195.785C182.18 204.14 172.175 207.625 164.036 203.415L139.356 190.651C122.389 182.196 101.928 183.603 86.4145 194.496L84.377 195.927C70.9007 205.389 53.4679 207.148 38.3736 200.566L18.4392 191.875C7.5278 187.117 -5.21346 191.399 -11.037 201.781C-12.9797 205.244 -14 209.148 -14 213.119V243C-14 307.617 38.7873 360 103.405 360C167.577 360 220 307.978 220 243.806Z" fill="#FEE2E2"/>
<circle cx="67.5" cy="269.5" r="11.5" fill="#F87171"/>
<circle cx="33.5" cy="289.5" r="11.5" fill="#F87171"/>
<circle cx="90.5" cy="296.5" r="11.5" fill="#F87171"/>
<circle cx="166.5" cy="283.5" r="11.5" fill="#F87171"/>
<circle cx="137.5" cy="306.5" r="11.5" fill="#F87171"/>
<circle cx="124.5" cy="263.5" r="11.5" fill="#F87171"/>
<circle cx="102.5" cy="324.5" r="11.5" fill="#F87171"/>
<circle cx="56.5" cy="318.5" r="11.5" fill="#F87171"/>
</g>
</svg>
